<svg width="770" height="230" viewBox="0 0 770 230" fill="none" xmlns="http://www.w3.org/2000/svg">
<path d="M0 9.25938C12.689 9.25938 25.378 9.25938 38.4516 9.25938C38.4516 39.3371 38.4516 69.4148 38.4516 100.404C69.9392 100.404 101.427 100.404 133.868 100.404C133.868 70.3262 133.868 40.2485 133.868 9.25938C146.558 9.25938 159.247 9.25938 172.32 9.25938C172.32 82.1038 172.32 154.948 172.32 230C159.631 230 146.942 230 133.868 230C133.868 198.042 133.868 166.085 133.868 133.159C102.381 133.159 70.8933 133.159 38.4516 133.159C38.4516 165.117 38.4516 197.074 38.4516 230C25.7626 230 13.0735 230 0 230C0 157.156 0 84.3112 0 9.25938Z" fill="white"/>
<path d="M450.026 9.25939C461.775 9.25939 473.524 9.25939 485.629 9.25939C490.193 20.0898 494.578 30.9485 498.686 41.9588C499.239 43.4347 499.793 44.9107 500.363 46.4313C502.19 51.307 504.012 56.1846 505.834 61.0622C507.13 64.5263 508.427 67.9903 509.723 71.4543C514.042 83 518.351 94.5498 522.657 106.1C523.248 107.687 523.248 107.687 523.852 109.305C529.669 124.911 535.479 140.519 541.283 156.13C542.495 159.388 543.708 162.647 544.92 165.905C552.849 187.215 560.767 208.521 568.229 230C554.6 230 540.971 230 526.929 230C523.597 220.984 520.27 211.966 516.96 202.941C516.574 201.888 516.187 200.834 515.789 199.749C514.78 196.988 513.778 194.224 512.777 191.459C512.206 189.886 511.635 188.313 511.047 186.692C509.84 183.004 509.84 183.004 509.84 180.155C482.112 180.155 454.384 180.155 425.816 180.155C424.876 184.385 423.936 188.615 422.967 192.973C421.999 196.108 420.975 199.228 419.886 202.324C419.372 203.795 418.859 205.267 418.33 206.783C417.687 208.6 417.044 210.416 416.381 212.287C414.325 218.133 412.269 223.978 410.15 230C396.521 230 382.892 230 368.85 230C373.657 213.979 373.657 213.979 375.662 208.627C376.118 207.406 376.573 206.184 377.042 204.926C377.767 202.999 377.767 202.999 378.508 201.033C379.029 199.639 379.549 198.246 380.086 196.809C381.796 192.236 383.512 187.664 385.228 183.093C386.439 179.856 387.65 176.619 388.86 173.382C391.375 166.653 393.894 159.925 396.413 153.198C401.724 139.012 407.009 124.817 412.294 110.622C413.972 106.117 415.65 101.612 417.328 97.1064C428.237 67.8275 439.133 38.5439 450.026 9.25939ZM467.116 60.5282C466.706 61.7338 466.706 61.7338 466.289 62.9638C463.426 71.3983 460.56 79.8319 457.693 88.265C456.626 91.4042 455.56 94.5436 454.495 97.6832C452.955 102.22 451.413 106.755 449.87 111.291C449.167 113.366 449.167 113.366 448.449 115.482C445.665 123.662 442.756 131.776 439.684 139.852C438.415 143.233 438.415 143.233 438.633 147.4C458.371 147.4 478.11 147.4 498.447 147.4C495.096 136.169 495.096 136.169 491.512 125.028C491.037 123.608 490.562 122.188 490.072 120.725C489.573 119.246 489.075 117.766 488.561 116.242C488.036 114.685 487.512 113.128 486.971 111.524C485.871 108.262 484.768 105.001 483.665 101.74C482.534 98.395 481.409 95.0484 480.288 91.7002C478.665 86.8524 477.028 82.0093 475.388 77.1672C474.886 75.6616 474.385 74.1561 473.868 72.6049C473.398 71.2254 472.927 69.8459 472.442 68.4245C472.031 67.2057 471.62 65.9868 471.197 64.731C470.202 61.6938 470.202 61.6938 467.116 60.5282Z" fill="white"/>
<path d="M216.468 9.25938C262.995 9.25938 309.521 9.25938 357.457 9.25938C357.457 20.0686 357.457 30.8777 357.457 42.0144C323.62 42.0144 289.783 42.0144 254.92 42.0144C254.92 61.283 254.92 80.5515 254.92 100.404C284.058 100.404 313.195 100.404 343.216 100.404C343.216 111.213 343.216 122.022 343.216 133.159C314.078 133.159 284.941 133.159 254.92 133.159C254.92 154.777 254.92 176.396 254.92 198.669C289.227 198.669 323.535 198.669 358.882 198.669C358.882 209.008 358.882 219.347 358.882 230C311.885 230 264.889 230 216.468 230C216.468 157.156 216.468 84.3112 216.468 9.25938Z" fill="white"/>
<path d="M666.049 0.00251912C668.28 0.0131897 668.28 0.0131897 670.556 0.0240758C698.015 0.637134 721.282 12.8347 740.549 32.0455C758.573 52.2271 769.307 77.0753 769.744 104.142C769.784 105.762 769.784 105.762 769.824 107.415C769.763 112.696 769.221 115.775 766.345 120.253C762.934 123.582 760.859 124.958 756.215 126.038C749.88 125.925 747.075 125.3 742.151 121.232C737.887 115.964 737.505 111.719 736.926 105.105C735.026 84.4648 727.745 66.1318 712.067 51.9834C711.023 50.9562 711.023 50.9562 709.958 49.9084C696.626 37.3997 679.312 32.693 661.426 33.0246C642.611 34.7332 628.206 43.2665 615.949 57.2571C605.934 69.5135 602.719 82.2296 603.198 97.9562C604.772 111.1 610.625 123.248 620.922 131.735C631.753 139.05 642.051 142.607 655.101 140.28C666.535 136.597 674.001 130.079 679.845 119.719C681.666 112.255 681.897 106.074 678.332 99.2468C675.075 94.7566 673.099 92.3776 667.918 90.435C664.869 91.6995 664.869 91.6995 662.222 93.2832C662.288 94.2287 662.354 95.1741 662.422 96.1482C662.845 106.506 662.846 106.506 659.552 111.886C654.59 116.409 650.804 116.722 644.264 116.659C638.376 115.639 634.509 112.145 630.891 107.525C626.882 99.3723 626.437 90.2677 628.972 81.5397C633.426 71.7335 640.598 64.3819 650.384 59.9051C662.209 55.76 674.391 56.0605 685.798 61.3237C699.708 69.5228 707.855 80.754 712.968 95.9646C715.999 113.444 713.203 129.179 703.789 144.196C693.602 158.447 679.662 169.386 662.222 173.035C640.351 176.152 620.821 172.609 602.631 159.767C586.404 147.097 574.637 129.426 571.077 108.949C568.419 83.4408 571.988 58.8919 588.267 38.2817C591.443 34.6467 594.732 31.1944 598.136 27.7731C599.083 26.7763 600.03 25.7794 601.006 24.7524C607.383 18.5097 614.274 14.2574 622.168 10.2385C623.073 9.77471 623.978 9.31094 624.911 8.83312C638.202 2.40408 651.343 -0.0908662 666.049 0.00251912Z" fill="#DD054A"/>
<path d="M638.012 230V180.155H606.681V230H638.012Z" fill="white"/>
<path d="M702.173 230H736.277L707.499 180.155H673.395L702.173 230Z" fill="white"/>
</svg>
