<svg width="1669" height="499" viewBox="0 0 1669 499" fill="none" xmlns="http://www.w3.org/2000/svg">
<path d="M0 20.0686C27.502 20.0686 55.004 20.0686 83.3393 20.0686C83.3393 85.2585 83.3393 150.448 83.3393 217.614C151.585 217.614 219.831 217.614 290.144 217.614C290.144 152.424 290.144 87.234 290.144 20.0686C317.646 20.0686 345.148 20.0686 373.484 20.0686C373.484 177.95 373.484 335.832 373.484 498.498C345.982 498.498 318.48 498.498 290.144 498.498C290.144 429.234 290.144 359.97 290.144 288.607C221.899 288.607 153.653 288.607 83.3393 288.607C83.3393 357.871 83.3393 427.135 83.3393 498.498C55.8374 498.498 28.3354 498.498 0 498.498C0 340.616 0 182.735 0 20.0686Z" fill="black"/>
<path d="M975.379 20.0686C1000.84 20.0686 1026.31 20.0686 1052.55 20.0686C1062.44 43.5424 1071.94 67.0772 1080.84 90.9408C1082.04 94.1397 1083.24 97.3387 1084.48 100.634C1088.44 111.202 1092.39 121.773 1096.34 132.345C1099.15 139.853 1101.96 147.361 1104.77 154.869C1114.13 179.893 1123.47 204.926 1132.8 229.96C1134.08 233.399 1134.08 233.399 1135.39 236.907C1148 270.73 1160.59 304.559 1173.17 338.393C1175.8 345.455 1178.42 352.518 1181.05 359.58C1198.24 405.766 1215.4 451.945 1231.57 498.498C1202.03 498.498 1172.49 498.498 1142.06 498.498C1134.84 478.957 1127.62 459.412 1120.45 439.852C1119.61 437.569 1118.78 435.285 1117.91 432.933C1115.72 426.948 1113.55 420.957 1111.38 414.966C1110.15 411.556 1108.91 408.146 1107.63 404.633C1105.02 396.639 1105.02 396.639 1105.02 390.466C1044.92 390.466 984.824 390.466 922.906 390.466C920.869 399.633 918.832 408.8 916.733 418.246C914.633 425.042 912.414 431.803 910.053 438.514C908.941 441.703 907.828 444.892 906.682 448.178C905.288 452.115 903.893 456.052 902.457 460.108C898.001 472.777 893.544 485.446 888.953 498.498C859.414 498.498 829.875 498.498 799.44 498.498C809.857 463.775 809.857 463.775 814.204 452.175C815.191 449.528 816.177 446.88 817.194 444.153C818.767 439.977 818.767 439.977 820.372 435.716C821.5 432.695 822.629 429.674 823.792 426.562C827.498 416.648 831.217 406.74 834.937 396.832C837.562 389.817 840.185 382.802 842.808 375.786C848.261 361.202 853.718 346.619 859.179 332.038C870.69 301.293 882.144 270.527 893.599 239.761C897.235 229.996 900.873 220.231 904.511 210.467C928.154 147.008 951.769 83.5394 975.379 20.0686ZM1012.42 131.188C1011.53 133.801 1011.53 133.801 1010.63 136.467C1004.42 154.747 998.211 173.026 991.997 191.304C989.685 198.108 987.374 204.912 985.064 211.717C981.727 221.549 978.384 231.38 975.041 241.21C973.517 245.707 973.517 245.707 971.961 250.295C965.927 268.022 959.623 285.61 952.965 303.114C950.214 310.44 950.214 310.44 950.686 319.473C993.467 319.473 1036.25 319.473 1080.32 319.473C1073.06 295.13 1073.06 295.13 1065.29 270.984C1064.26 267.907 1063.24 264.829 1062.17 261.658C1061.09 258.451 1060.01 255.245 1058.9 251.941C1057.76 248.566 1056.63 245.191 1055.45 241.715C1053.07 234.645 1050.68 227.577 1048.29 220.51C1045.84 213.26 1043.4 206.006 1040.97 198.75C1037.45 188.242 1033.9 177.746 1030.35 167.251C1029.26 163.988 1028.17 160.725 1027.05 157.363C1026.03 154.373 1025.01 151.383 1023.96 148.302C1023.07 145.66 1022.18 143.019 1021.26 140.297C1019.11 133.714 1019.11 133.714 1012.42 131.188Z" fill="black"/>
<path d="M469.17 20.0686C570.01 20.0686 670.851 20.0686 774.747 20.0686C774.747 43.4963 774.747 66.9239 774.747 91.0614C701.409 91.0614 628.07 91.0614 552.509 91.0614C552.509 132.824 552.509 174.586 552.509 217.614C615.662 217.614 678.814 217.614 743.881 217.614C743.881 241.041 743.881 264.469 743.881 288.607C680.728 288.607 617.575 288.607 552.509 288.607C552.509 335.462 552.509 382.317 552.509 430.592C626.866 430.592 701.223 430.592 777.834 430.592C777.834 453.001 777.834 475.41 777.834 498.498C675.975 498.498 574.115 498.498 469.17 498.498C469.17 340.616 469.17 182.735 469.17 20.0686Z" fill="black"/>
<path d="M1443.58 0.00545989C1448.42 0.0285871 1448.42 0.0285871 1453.35 0.0521815C1512.87 1.38091 1563.29 27.8177 1605.05 69.4549C1644.12 113.196 1667.38 167.052 1668.33 225.716C1668.42 229.227 1668.42 229.227 1668.5 232.809C1668.37 244.255 1667.2 250.928 1660.96 260.634C1653.57 267.849 1649.07 270.833 1639.01 273.173C1625.28 272.928 1619.2 271.572 1608.53 262.756C1599.28 251.339 1598.46 242.137 1597.2 227.802C1593.08 183.068 1577.3 143.333 1543.32 112.668C1541.06 110.442 1541.06 110.442 1538.75 108.171C1509.86 81.0594 1472.33 70.8583 1433.56 71.577C1392.78 75.2801 1361.56 93.7752 1335 124.098C1313.29 150.662 1306.32 178.223 1307.36 212.309C1310.77 240.797 1323.46 267.127 1345.78 285.52C1369.25 301.374 1391.57 309.085 1419.86 304.04C1444.64 296.059 1460.82 281.931 1473.49 259.476C1477.43 243.299 1477.93 229.903 1470.21 215.106C1463.15 205.374 1458.86 200.218 1447.64 196.007C1441.03 198.748 1441.03 198.748 1435.29 202.181C1435.43 204.23 1435.58 206.279 1435.72 208.39C1436.64 230.839 1436.64 230.839 1429.5 242.5C1418.75 252.304 1410.54 252.982 1396.37 252.845C1383.61 250.635 1375.22 243.062 1367.38 233.047C1358.69 215.378 1357.73 195.645 1363.22 176.728C1372.88 155.474 1388.42 139.54 1409.63 129.837C1435.26 120.853 1461.66 121.505 1486.39 132.912C1516.53 150.683 1534.19 175.025 1545.27 207.992C1551.84 245.877 1545.78 279.981 1525.38 312.528C1503.3 343.415 1473.09 367.124 1435.29 375.033C1387.89 381.788 1345.56 374.11 1306.13 346.276C1270.96 318.816 1245.46 280.516 1237.74 236.134C1231.98 180.848 1239.72 127.641 1275 82.971C1281.88 75.0927 1289.01 67.6101 1296.39 60.195C1298.44 58.0345 1300.5 55.8739 1302.61 53.6479C1316.43 40.1176 1331.37 30.9013 1348.48 22.1907C1350.44 21.1855 1352.4 20.1804 1354.42 19.1448C1383.23 5.21056 1411.71 -0.196942 1443.58 0.00545989Z" fill="#DD054A"/>
<path d="M1382.82 498.498V390.466H1314.91V498.498H1382.82Z" fill="black"/>
<path d="M1521.88 498.498H1595.79L1533.42 390.466H1459.51L1521.88 498.498Z" fill="black"/>
</svg>
